<svg id="Warstwa_1" data-name="Warstwa 1" xmlns="http://www.w3.org/2000/svg" viewBox="0 0 114.51 72.07"><path d="M947.72,557c16.6-2.19,29.56,1.58,40.18,13.31,8.79,9.69,18.39,18.65,27.62,27.94,1,.95,1.86,1.94,2.56,2.68-8.89,14.77-23,13.31-37.13,12.49,1-1.66,1.95-3.07,2.68-4.61,3.28-6.86,1.91-14.49-3.81-20.31q-13.38-13.61-26.92-27.05C951.51,560,949.92,558.83,947.72,557Z" transform="translate(-947.72 -541.77)"/><path d="M1024.47,594l-51.68-51.82c12.5-1.15,24.48-.36,34,8.87,10.38,10,20.34,20.49,30.35,30.63Z" transform="translate(-947.72 -541.77)"/><path d="M1031.59,562.24c8.86-8.81,20.16-5,30.64-5.9l-18.35,18.4Z" transform="translate(-947.72 -541.77)"/></svg>